<svg xmlns="http://www.w3.org/2000/svg" xmlns:xlink="http://www.w3.org/1999/xlink" version="1.1" viewBox="0 0 70 87.5">
    <g>
        <path
            d="M55.6199951,59.4311066c0.1799927,0.2000122,0.2600098,0.4699707,0.2299805,0.7399902   c-0.0199585,0.2700195-0.1599731,0.5200195-0.3699951,0.6900024C49.5900269,65.5210724,42.5100098,67.9911041,35,67.9911041   c-18.2000122,0-33-14.7999878-33-33C2,17.2110729,16.460022,2.4210956,34.2299805,2.0110614   c0.25-0.0199584,0.5300293,0.1000366,0.7200317,0.2800293C35.1400146,2.4810932,35.25,2.7411029,35.25,3.0110614v10.8900146   c0,0.5400391-0.4299927,0.9800415-0.960022,1c-10.8899536,0.3900146-19.4099731,9.210021-19.4099731,20.0900269   c0,11.0999756,9.0200195,20.1300049,20.1199951,20.1300049c4.4400024,0,8.6599731-1.4400024,12.210022-4.1600342   c0.4199829-0.3299561,1.0299683-0.2600098,1.3699951,0.1500244L55.6199951,59.4311066z" />
        <path
            d="M68,34.9911041c0,8.6900024-3.3599854,16.8999634-9.4500122,23.1099854   c-0.1900024,0.1900024-0.4500122,0.2999878-0.7099609,0.2999878h-0.0400391   c-0.2799683-0.0100098-0.5499878-0.1400146-0.7299805-0.3499756l-7.0800171-8.3699951   c-0.3200073-0.3800049-0.3200073-0.9400024,0.0200195-1.3200073c3.2999878-3.7000122,5.1099854-8.4500122,5.1099854-13.3699951   c0-0.6799927-0.0299683-1.3599854-0.0999756-2.0400391c-0.0500488-0.5099487,0.289978-0.9699726,0.789978-1.079958   l10.6699829-2.2600098c0.2700195-0.0499878,0.5600586,0,0.7900391,0.1599731   c0.2199707,0.1600342,0.3699951,0.4100342,0.4099121,0.6799927C67.8900146,31.9810925,68,33.5110626,68,34.9911041z" />
        <path
            d="M37.25,14.1410666V3.1510761c0-0.2799683,0.1199951-0.5499878,0.3300171-0.7399902   c0.2099609-0.1900024,0.4799805-0.2799683,0.7699585-0.25c13.5300293,1.3599854,24.9801025,11.1099854,28.5200195,24.25   c0.0699463,0.2600098,0.0300293,0.5499878-0.1199951,0.7800293c-0.1400146,0.2399902-0.3699951,0.3999634-0.6400146,0.4599609   l-10.6699829,2.2600098c-0.0700073,0.0100098-0.1400146,0.0200195-0.210022,0.0200195   c-0.4299927,0-0.8299561-0.2900391-0.9599609-0.7200317c-2.2000122-7.3699951-8.5500488-12.8999634-16.1700439-14.0799551   C37.6099854,15.0511007,37.25,14.6311178,37.25,14.1410666z" />
    </g>
</svg>