<svg version="1.1" xmlns="http://www.w3.org/2000/svg" xmlns:xlink="http://www.w3.org/1999/xlink" viewBox="0 0 400 400">
    <g>
        <path
            d="M124.483 38.678 C 114.112 39.888,109.457 50.786,112.936 65.711 C 113.172 66.726,113.557 67.925,113.790 68.376 C 114.288 69.339,114.133 83.110,113.593 85.957 C 113.119 88.456,113.353 99.394,113.902 100.386 C 114.402 101.290,114.414 101.274,111.209 104.000 C 106.973 107.604,97.185 118.083,94.267 122.141 C 93.973 122.548,92.527 124.484,91.052 126.441 C 87.683 130.913,85.544 133.838,85.200 134.441 C 85.053 134.699,83.853 136.487,82.533 138.415 C 79.942 142.200,79.133 143.439,76.655 147.414 C 74.288 151.212,72.533 154.131,72.533 154.270 C 72.533 154.337,72.185 154.964,71.758 155.663 C 67.123 163.261,61.474 175.583,58.908 183.693 L 57.867 186.986 57.867 195.880 C 57.867 202.267,57.958 204.985,58.190 205.521 C 58.958 207.290,61.728 210.991,63.277 212.316 C 64.188 213.096,65.053 213.874,65.200 214.046 C 66.118 215.124,73.220 218.155,76.278 218.774 C 82.443 220.023,100.562 219.683,110.933 218.125 C 124.042 216.155,142.278 214.799,143.981 215.667 C 147.946 217.689,145.773 228.383,139.117 239.598 C 138.681 240.333,138.026 241.473,137.661 242.133 C 137.295 242.793,136.592 243.904,136.098 244.601 C 135.604 245.298,135.200 245.944,135.200 246.037 C 135.200 246.930,128.477 255.276,126.464 256.883 C 122.987 259.656,121.493 259.839,119.600 257.721 C 119.453 257.557,118.493 256.837,117.467 256.120 C 116.440 255.403,115.353 254.573,115.050 254.275 C 114.748 253.977,113.637 253.037,112.581 252.186 C 111.525 251.335,110.474 250.354,110.246 250.005 C 109.799 249.323,107.007 248.055,103.200 246.806 C 101.953 246.397,100.810 245.966,100.660 245.848 C 100.294 245.562,95.611 244.626,92.807 244.279 C 86.274 243.472,75.418 244.382,74.411 245.822 C 74.332 245.935,73.825 246.296,73.285 246.624 C 66.769 250.583,69.878 264.359,79.890 275.890 C 83.685 280.262,86.113 282.696,89.382 285.411 C 91.079 286.821,96.140 290.087,99.200 291.747 C 100.887 292.663,102.447 293.556,102.667 293.733 C 103.184 294.150,107.533 295.991,110.267 296.951 C 111.440 297.364,112.460 297.784,112.533 297.886 C 112.607 297.988,112.890 298.116,113.162 298.169 C 113.638 298.263,113.656 298.803,113.615 311.726 L 113.573 325.185 112.501 326.882 C 109.911 330.984,108.723 338.748,109.576 346.000 C 110.010 349.682,112.642 352.353,119.067 355.630 C 120.973 356.603,122.593 357.486,122.667 357.592 C 122.870 357.885,128.095 359.872,130.801 360.685 C 132.658 361.243,133.802 361.413,135.867 361.436 L 138.533 361.467 141.867 359.792 C 143.700 358.871,145.320 357.971,145.467 357.792 C 145.613 357.613,146.393 356.970,147.200 356.362 C 149.708 354.473,152.891 350.898,153.696 349.067 C 153.857 348.700,154.052 348.340,154.128 348.267 C 155.071 347.361,156.282 342.559,156.457 339.034 C 156.814 331.852,155.496 328.813,151.006 326.467 C 150.233 326.064,149.601 325.657,149.601 325.564 C 149.600 325.471,148.910 325.123,148.067 324.789 C 147.223 324.456,146.443 324.106,146.332 324.011 C 146.222 323.916,146.211 317.591,146.309 309.956 L 146.486 296.073 147.900 295.228 C 148.677 294.763,149.509 294.187,149.748 293.947 C 149.987 293.708,151.089 292.817,152.197 291.968 C 156.973 288.306,164.508 279.942,169.181 273.116 C 172.303 268.555,174.133 265.816,174.133 265.702 C 174.133 265.630,174.603 264.879,175.177 264.034 C 175.751 263.188,176.605 261.785,177.075 260.915 C 177.544 260.045,178.012 259.273,178.115 259.200 C 178.217 259.127,178.850 258.047,179.521 256.800 C 192.163 233.317,198.543 214.597,199.759 197.419 C 201.400 174.232,188.806 167.421,154.801 173.108 C 152.161 173.550,149.881 174.008,149.734 174.127 C 149.587 174.245,148.747 174.486,147.867 174.661 C 143.994 175.434,133.454 177.947,133.333 178.127 C 133.200 178.326,120.155 181.600,119.498 181.600 C 119.305 181.600,118.769 181.777,118.307 181.994 C 115.946 183.100,103.298 185.328,101.824 184.897 L 100.933 184.637 100.975 182.918 C 101.041 180.247,103.102 174.626,105.261 171.228 C 105.764 170.437,106.275 169.529,106.396 169.210 C 106.686 168.446,110.261 162.997,113.925 157.733 C 116.427 154.138,118.915 150.831,122.253 146.667 C 132.516 133.858,137.673 133.217,144.459 143.908 C 149.209 151.392,152.513 153.234,161.067 153.168 C 174.970 153.061,184.294 143.312,185.521 127.595 C 185.883 122.967,180.273 115.233,171.600 108.405 C 170.867 107.828,169.667 106.793,168.933 106.107 C 164.611 102.059,160.333 98.905,156.109 96.652 L 153.581 95.304 153.479 93.319 C 153.423 92.227,153.062 89.893,152.676 88.133 C 151.027 80.615,150.545 75.626,151.440 75.342 C 152.135 75.121,154.417 73.568,156.114 72.161 C 162.440 66.914,163.225 53.174,157.418 49.333 C 156.864 48.967,155.508 47.767,154.405 46.667 C 153.302 45.567,151.646 44.247,150.725 43.733 C 149.804 43.220,148.805 42.598,148.505 42.351 C 145.541 39.912,131.851 37.819,124.483 38.678 M211.600 47.547 C 211.013 47.692,210.445 47.943,210.337 48.105 C 210.230 48.267,210.140 48.303,210.137 48.185 C 210.132 47.899,208.533 48.851,208.533 49.140 C 208.533 49.264,208.426 49.299,208.296 49.218 C 208.165 49.137,207.860 49.374,207.617 49.744 C 207.375 50.114,207.062 50.346,206.922 50.259 C 206.781 50.173,206.667 50.276,206.667 50.489 C 206.667 50.702,206.487 50.945,206.267 51.030 C 206.047 51.114,205.867 51.354,205.867 51.563 C 205.867 51.772,205.704 52.005,205.506 52.081 C 205.105 52.235,203.894 54.398,204.204 54.404 C 204.312 54.406,204.242 54.508,204.049 54.631 C 203.856 54.753,203.672 55.021,203.641 55.227 C 203.610 55.432,203.491 55.750,203.377 55.933 C 203.262 56.117,203.242 56.267,203.333 56.267 C 203.423 56.267,203.310 56.533,203.082 56.859 C 202.853 57.185,202.667 57.838,202.667 58.310 C 202.667 58.782,202.557 59.236,202.424 59.319 C 202.290 59.401,202.215 59.678,202.256 59.934 C 202.298 60.190,202.233 60.526,202.112 60.679 C 201.991 60.832,201.889 61.192,201.885 61.479 C 201.771 70.617,201.921 74.648,202.436 76.338 C 202.580 76.812,202.760 77.678,202.835 78.263 C 202.910 78.847,203.068 79.447,203.186 79.596 C 203.303 79.745,203.463 80.227,203.541 80.667 C 203.852 82.424,204.045 83.063,204.317 83.231 C 204.474 83.328,204.519 83.540,204.418 83.704 C 204.318 83.867,204.382 84.000,204.562 84.000 C 204.742 84.000,204.810 84.079,204.713 84.175 C 204.617 84.272,204.672 84.512,204.835 84.709 C 204.998 84.906,205.054 85.067,204.959 85.067 C 204.864 85.067,204.972 85.427,205.200 85.867 C 205.428 86.307,205.536 86.667,205.441 86.667 C 205.346 86.667,205.427 86.858,205.622 87.093 C 205.816 87.327,206.014 87.772,206.061 88.081 C 206.108 88.390,206.294 88.737,206.473 88.851 C 206.653 88.965,206.691 89.060,206.559 89.063 C 206.426 89.065,206.535 89.307,206.800 89.600 C 207.065 89.893,207.190 90.133,207.077 90.133 C 206.964 90.133,207.095 90.463,207.367 90.867 C 207.831 91.552,207.867 92.416,207.922 104.133 C 207.955 111.027,208.045 119.907,208.122 123.867 C 208.352 135.687,208.512 143.024,208.664 148.667 C 208.743 151.600,208.865 156.580,208.936 159.733 C 209.170 170.146,209.546 184.065,210.005 199.200 C 210.078 201.620,210.192 205.400,210.258 207.600 C 210.325 209.800,210.445 213.520,210.525 215.867 C 210.605 218.213,210.726 221.813,210.794 223.867 C 210.861 225.920,210.978 229.160,211.054 231.067 C 211.130 232.973,211.252 236.093,211.326 238.000 C 211.400 239.907,211.526 242.907,211.606 244.667 C 211.685 246.427,211.810 249.307,211.883 251.067 C 211.956 252.827,212.056 255.227,212.104 256.400 C 212.202 258.735,212.501 265.108,212.662 268.267 C 212.718 269.367,212.782 270.267,212.803 270.267 C 212.824 270.267,212.888 271.167,212.945 272.267 C 213.003 273.367,213.113 275.287,213.190 276.533 C 213.267 277.780,213.392 279.880,213.467 281.200 C 213.542 282.520,213.671 284.260,213.754 285.067 C 213.837 285.873,213.953 287.313,214.012 288.267 C 214.238 291.941,214.381 293.768,214.514 294.667 C 214.590 295.180,214.724 296.260,214.812 297.067 C 214.901 297.873,215.064 299.223,215.176 300.067 C 215.335 301.269,215.302 301.600,215.023 301.600 C 214.827 301.600,214.667 301.695,214.667 301.811 C 214.667 301.927,214.277 302.456,213.800 302.985 C 212.671 304.240,211.853 305.415,211.935 305.667 C 211.971 305.777,211.873 305.867,211.718 305.867 C 211.562 305.867,211.500 305.971,211.579 306.099 C 211.658 306.227,211.487 306.602,211.200 306.933 C 210.913 307.265,210.742 307.640,210.821 307.768 C 210.900 307.895,210.831 308.000,210.667 308.000 C 210.503 308.000,210.443 308.120,210.533 308.267 C 210.624 308.413,210.571 308.533,210.416 308.533 C 210.260 308.533,210.133 308.833,210.133 309.200 C 210.133 309.567,210.017 309.867,209.875 309.867 C 209.733 309.867,209.686 310.047,209.770 310.267 C 209.857 310.493,209.776 310.667,209.584 310.667 C 209.397 310.667,209.317 310.739,209.405 310.827 C 209.494 310.916,209.444 311.306,209.296 311.694 C 208.873 312.797,208.817 317.215,209.206 318.691 C 209.396 319.411,209.488 320.000,209.410 320.000 C 209.332 320.000,209.377 320.150,209.511 320.333 C 209.644 320.517,209.791 321.027,209.837 321.467 C 209.884 321.907,210.035 322.338,210.175 322.424 C 210.314 322.511,210.402 322.691,210.371 322.824 C 210.264 323.279,212.099 327.332,212.534 327.600 C 212.680 327.691,212.800 327.998,212.800 328.282 C 212.800 328.567,212.927 328.800,213.082 328.800 C 213.238 328.800,213.295 328.913,213.210 329.051 C 213.125 329.189,213.418 329.714,213.861 330.219 C 214.304 330.724,214.667 331.315,214.667 331.532 C 214.667 331.749,214.997 332.264,215.400 332.676 C 215.803 333.088,215.953 333.336,215.733 333.226 C 215.513 333.116,215.576 333.245,215.873 333.513 C 216.517 334.095,217.770 335.829,217.638 335.957 C 217.587 336.007,217.798 336.338,218.106 336.693 C 218.414 337.047,218.667 337.456,218.667 337.602 C 218.667 337.748,218.766 337.867,218.888 337.867 C 219.010 337.867,219.518 338.436,220.018 339.131 C 220.517 339.827,221.377 340.861,221.930 341.430 C 222.482 341.999,222.933 342.577,222.933 342.715 C 222.933 342.852,223.053 342.891,223.200 342.800 C 223.347 342.709,223.467 342.798,223.467 342.996 C 223.467 343.332,225.377 345.333,225.697 345.333 C 225.852 345.333,226.776 346.137,228.230 347.537 C 228.723 348.012,229.029 348.220,228.910 348.000 C 228.791 347.780,229.331 348.170,230.109 348.867 C 230.888 349.563,231.625 350.133,231.749 350.133 C 231.872 350.133,232.511 350.496,233.168 350.939 C 233.824 351.383,235.000 352.024,235.781 352.364 C 236.561 352.704,237.560 353.142,238.000 353.337 C 238.440 353.533,238.950 353.666,239.133 353.634 C 239.317 353.603,239.467 353.682,239.467 353.811 C 239.467 353.939,239.617 354.057,239.800 354.073 C 240.281 354.115,240.830 354.276,241.674 354.622 C 242.082 354.789,242.772 354.953,243.208 354.986 C 243.643 355.020,244.000 355.128,244.000 355.227 C 244.000 355.326,245.170 355.527,246.600 355.675 C 249.928 356.018,250.933 356.035,250.933 355.748 C 250.933 355.621,251.174 355.580,251.468 355.656 C 251.762 355.733,252.163 355.663,252.359 355.500 C 252.555 355.338,252.795 355.284,252.891 355.380 C 252.988 355.477,253.067 355.419,253.067 355.253 C 253.067 355.086,253.247 355.019,253.467 355.104 C 253.687 355.188,253.867 355.124,253.867 354.962 C 253.867 354.800,254.107 354.667,254.400 354.667 C 254.693 354.667,254.933 354.540,254.933 354.384 C 254.933 354.229,255.038 354.167,255.166 354.246 C 255.295 354.325,255.704 354.122,256.076 353.795 C 256.448 353.468,257.419 352.732,258.234 352.160 C 259.049 351.588,260.021 350.658,260.395 350.093 C 260.769 349.529,261.200 349.067,261.353 349.067 C 261.506 349.067,261.564 348.957,261.481 348.823 C 261.398 348.689,261.421 348.539,261.533 348.489 C 261.972 348.296,263.985 345.525,263.848 345.303 C 263.767 345.173,263.849 345.067,264.029 345.067 C 264.208 345.067,264.277 344.988,264.181 344.892 C 264.085 344.797,264.244 344.335,264.533 343.867 C 264.823 343.398,264.981 342.937,264.885 342.841 C 264.790 342.745,264.851 342.667,265.022 342.667 C 265.193 342.667,265.333 342.502,265.333 342.301 C 265.333 342.099,265.598 341.349,265.921 340.634 C 266.245 339.919,266.485 339.243,266.455 339.133 C 266.425 339.023,266.527 338.933,266.682 338.933 C 266.838 338.933,266.891 338.813,266.800 338.667 C 266.709 338.520,266.782 338.400,266.962 338.400 C 267.142 338.400,267.218 338.329,267.131 338.243 C 267.045 338.156,267.263 337.542,267.616 336.877 C 267.969 336.213,268.193 335.564,268.114 335.435 C 268.034 335.306,268.103 335.200,268.267 335.200 C 268.431 335.200,268.491 335.080,268.400 334.933 C 268.309 334.787,268.382 334.667,268.562 334.667 C 268.742 334.667,268.816 334.593,268.726 334.504 C 268.637 334.415,268.797 333.906,269.082 333.375 C 269.367 332.843,269.600 332.196,269.600 331.937 C 269.600 331.678,269.720 331.467,269.867 331.467 C 270.013 331.467,270.133 331.230,270.133 330.941 C 270.133 330.653,270.373 329.989,270.667 329.467 C 270.960 328.944,271.200 328.341,271.200 328.125 C 271.200 327.910,271.296 327.733,271.413 327.733 C 271.589 327.733,272.251 326.289,272.421 325.533 C 272.446 325.423,272.491 325.303,272.520 325.267 C 272.550 325.230,272.613 324.996,272.661 324.747 C 272.850 323.767,275.754 317.846,276.326 317.274 C 276.587 317.013,276.740 316.800,276.667 316.800 C 276.593 316.800,276.743 316.569,277.000 316.286 C 277.730 315.482,277.989 315.130,278.529 314.215 C 278.805 313.746,279.116 313.415,279.220 313.479 C 279.325 313.544,279.485 313.297,279.577 312.931 C 279.668 312.566,279.913 312.267,280.120 312.267 C 280.328 312.267,280.577 312.015,280.675 311.707 C 280.773 311.399,281.028 310.949,281.243 310.707 C 281.458 310.465,281.991 309.787,282.427 309.200 C 282.863 308.613,283.631 307.653,284.133 307.067 C 284.635 306.480,285.067 305.880,285.092 305.733 C 285.118 305.587,285.362 305.310,285.636 305.118 C 285.909 304.927,286.133 304.657,286.133 304.518 C 286.133 304.380,286.343 304.039,286.600 303.761 C 287.730 302.538,288.267 301.796,288.267 301.457 C 288.267 301.257,288.417 300.997,288.600 300.880 C 289.122 300.546,291.075 298.036,290.998 297.798 C 290.959 297.681,291.109 297.516,291.329 297.431 C 291.550 297.347,291.664 297.170,291.583 297.039 C 291.502 296.907,291.622 296.800,291.851 296.800 C 292.080 296.800,292.267 296.620,292.267 296.400 C 292.267 296.180,292.507 295.760,292.800 295.467 C 293.093 295.173,293.333 294.853,293.333 294.756 C 293.333 294.570,293.855 293.975,294.858 293.018 C 295.183 292.707,295.392 292.362,295.323 292.250 C 295.254 292.139,295.558 291.707,295.999 291.291 C 296.439 290.875,296.800 290.385,296.800 290.201 C 296.800 290.017,296.920 289.867,297.067 289.867 C 297.213 289.867,297.333 289.727,297.333 289.556 C 297.333 289.385,297.518 289.055,297.744 288.822 C 298.897 287.635,300.261 285.969,300.271 285.733 C 300.278 285.587,300.700 285.052,301.208 284.546 C 301.717 284.040,302.133 283.483,302.133 283.308 C 302.133 283.133,302.313 282.921,302.533 282.837 C 302.753 282.752,302.933 282.512,302.933 282.304 C 302.933 282.095,303.113 281.855,303.333 281.770 C 303.553 281.686,303.733 281.446,303.733 281.237 C 303.733 281.028,303.913 280.788,304.133 280.704 C 304.353 280.619,304.533 280.366,304.533 280.142 C 304.533 279.917,304.660 279.733,304.816 279.733 C 304.971 279.733,305.023 279.612,304.932 279.465 C 304.841 279.317,304.954 279.124,305.183 279.036 C 305.412 278.948,305.600 278.716,305.600 278.520 C 305.600 278.324,305.867 277.977,306.193 277.748 C 306.519 277.520,306.685 277.333,306.563 277.333 C 306.441 277.333,306.624 277.084,306.970 276.780 C 307.317 276.475,307.420 276.304,307.200 276.399 C 306.980 276.494,307.130 276.289,307.533 275.943 C 307.937 275.596,308.267 275.198,308.268 275.057 C 308.269 274.915,308.622 274.423,309.053 273.963 C 309.485 273.503,309.764 273.053,309.674 272.963 C 309.585 272.873,309.651 272.800,309.822 272.800 C 309.993 272.800,310.133 272.679,310.133 272.531 C 310.133 272.171,311.630 270.119,311.782 270.271 C 311.848 270.337,312.113 269.911,312.371 269.326 C 312.645 268.705,312.961 268.335,313.128 268.438 C 313.286 268.536,313.341 268.495,313.250 268.348 C 313.160 268.201,313.299 267.851,313.561 267.570 C 313.823 267.289,314.385 266.460,314.809 265.729 C 315.233 264.998,315.675 264.360,315.790 264.311 C 315.906 264.262,316.000 263.992,316.000 263.711 C 316.000 263.430,316.120 263.200,316.267 263.200 C 316.413 263.200,316.533 263.038,316.533 262.841 C 316.533 262.643,316.773 262.205,317.067 261.867 C 317.360 261.528,317.600 261.090,317.600 260.893 C 317.600 260.695,317.720 260.533,317.867 260.533 C 318.013 260.533,318.133 260.419,318.133 260.278 C 318.133 260.138,318.509 259.388,318.969 258.612 C 320.362 256.256,322.400 252.327,322.400 251.995 C 322.400 251.823,322.636 251.350,322.925 250.944 C 323.214 250.539,323.392 250.147,323.319 250.075 C 323.246 250.002,323.370 249.791,323.594 249.605 C 323.817 249.420,324.000 249.073,324.001 248.834 C 324.002 248.595,324.240 248.010,324.530 247.533 C 324.821 247.057,324.986 246.667,324.897 246.667 C 324.808 246.667,324.884 246.487,325.067 246.267 C 325.249 246.047,325.294 245.865,325.166 245.863 C 325.038 245.860,325.089 245.760,325.280 245.639 C 325.471 245.518,325.646 245.159,325.670 244.843 C 325.694 244.526,325.808 244.267,325.923 244.267 C 326.039 244.267,326.133 243.977,326.133 243.622 C 326.133 243.268,326.246 242.938,326.384 242.889 C 326.522 242.840,326.692 242.484,326.761 242.099 C 326.830 241.713,327.057 241.053,327.266 240.632 C 327.475 240.211,327.856 239.147,328.112 238.267 C 328.368 237.387,328.646 236.487,328.731 236.267 C 328.815 236.047,328.860 235.717,328.830 235.533 C 328.801 235.350,328.902 235.200,329.055 235.200 C 329.208 235.200,329.319 235.110,329.302 235.000 C 329.284 234.890,329.294 234.740,329.322 234.667 C 329.351 234.593,329.418 234.353,329.471 234.133 C 329.525 233.913,329.650 233.433,329.749 233.067 C 329.848 232.700,330.065 231.680,330.231 230.800 C 330.398 229.920,330.612 229.080,330.707 228.933 C 330.868 228.685,331.233 226.331,331.347 224.800 C 331.375 224.433,331.429 224.133,331.468 224.133 C 331.683 224.133,332.032 218.581,332.005 215.600 C 331.980 212.912,331.834 209.467,331.744 209.467 C 331.718 209.467,331.640 208.747,331.571 207.867 C 331.502 206.987,331.371 206.087,331.279 205.867 C 331.188 205.647,331.084 205.167,331.050 204.800 C 331.015 204.433,330.937 203.953,330.875 203.733 C 330.814 203.513,330.671 202.913,330.558 202.400 C 330.444 201.887,330.168 200.927,329.944 200.267 C 329.720 199.607,329.493 198.735,329.440 198.329 C 329.386 197.924,329.165 197.249,328.949 196.830 C 328.732 196.411,328.630 195.992,328.722 195.900 C 328.814 195.809,328.742 195.733,328.562 195.733 C 328.382 195.733,328.298 195.631,328.376 195.506 C 328.453 195.381,328.344 195.051,328.133 194.773 C 327.923 194.494,327.746 194.055,327.742 193.796 C 327.733 193.296,327.214 192.241,326.844 191.970 C 326.721 191.880,326.644 191.720,326.671 191.613 C 326.699 191.506,326.470 191.130,326.162 190.776 C 325.855 190.423,325.662 190.133,325.733 190.133 C 325.858 190.133,325.048 189.123,324.314 188.365 C 324.120 188.164,324.030 188.000,324.113 188.000 C 324.299 188.000,320.623 184.311,319.794 183.667 C 319.464 183.410,319.075 183.200,318.930 183.200 C 318.785 183.200,318.667 183.060,318.667 182.889 C 318.667 182.718,318.594 182.651,318.505 182.739 C 318.416 182.828,317.745 182.428,317.014 181.850 C 316.282 181.272,315.575 180.866,315.442 180.949 C 315.309 181.031,315.200 180.971,315.200 180.816 C 315.200 180.660,315.020 180.533,314.800 180.533 C 314.580 180.533,314.400 180.406,314.400 180.251 C 314.400 180.096,314.280 180.043,314.133 180.133 C 313.987 180.224,313.867 180.186,313.867 180.049 C 313.867 179.731,311.414 178.667,310.684 178.667 C 310.381 178.667,310.133 178.577,310.133 178.467 C 310.133 178.357,309.383 178.035,308.467 177.752 C 307.550 177.469,306.610 177.078,306.378 176.885 C 306.146 176.691,305.887 176.602,305.801 176.687 C 305.716 176.773,305.356 176.653,305.002 176.420 C 304.647 176.188,304.277 176.079,304.179 176.177 C 304.080 176.275,304.000 176.203,304.000 176.016 C 304.000 175.829,303.835 175.740,303.632 175.817 C 303.430 175.895,303.150 175.843,303.009 175.703 C 302.869 175.562,302.408 175.384,301.985 175.308 C 301.562 175.231,301.047 175.027,300.839 174.855 C 300.631 174.682,300.327 174.533,300.164 174.523 C 300.000 174.513,299.507 174.341,299.067 174.141 C 298.627 173.941,298.207 173.764,298.133 173.746 C 298.060 173.729,297.746 173.573,297.435 173.400 C 297.124 173.227,296.808 173.147,296.733 173.222 C 296.658 173.298,295.846 172.996,294.930 172.552 C 294.013 172.108,293.159 171.810,293.032 171.888 C 292.904 171.967,292.800 171.884,292.800 171.705 C 292.800 171.525,292.724 171.454,292.632 171.546 C 292.539 171.639,292.209 171.573,291.898 171.401 C 291.588 171.228,291.239 171.114,291.124 171.147 C 291.008 171.179,290.390 170.914,289.749 170.556 C 289.108 170.198,288.528 169.961,288.461 170.028 C 288.393 170.096,287.756 169.856,287.044 169.496 C 286.333 169.135,285.657 168.898,285.542 168.969 C 285.129 169.224,285.344 168.622,285.867 168.061 C 286.160 167.747,286.400 167.364,286.400 167.211 C 286.400 167.058,286.527 166.933,286.682 166.933 C 286.838 166.933,286.890 166.812,286.799 166.665 C 286.708 166.517,286.820 166.324,287.050 166.236 C 287.279 166.148,287.469 165.939,287.471 165.771 C 287.474 165.604,287.954 164.996,288.538 164.420 C 289.122 163.844,289.600 163.214,289.600 163.020 C 289.600 162.826,289.720 162.667,289.867 162.667 C 290.013 162.667,290.133 162.542,290.133 162.389 C 290.133 162.236,290.252 161.966,290.396 161.789 C 291.683 160.211,292.018 159.733,291.840 159.733 C 291.726 159.733,291.886 159.497,292.196 159.209 C 292.505 158.921,292.832 158.452,292.923 158.167 C 293.013 157.882,293.270 157.579,293.494 157.493 C 293.717 157.407,293.826 157.216,293.734 157.069 C 293.643 156.921,293.666 156.800,293.786 156.800 C 293.905 156.800,294.153 156.463,294.335 156.050 C 294.518 155.638,294.937 155.010,295.267 154.656 C 295.597 154.302,295.867 153.935,295.867 153.841 C 295.867 153.747,296.132 153.324,296.455 152.902 C 296.779 152.479,297.019 152.070,296.989 151.994 C 296.958 151.917,297.267 151.497,297.675 151.060 C 298.083 150.624,298.486 149.997,298.571 149.667 C 298.655 149.337,298.831 149.067,298.962 149.067 C 299.093 149.067,299.200 148.823,299.200 148.525 C 299.200 148.227,299.379 147.914,299.598 147.830 C 299.818 147.746,299.937 147.580,299.863 147.460 C 299.789 147.341,299.880 147.083,300.064 146.888 C 300.249 146.693,300.576 146.173,300.792 145.733 C 301.007 145.293,301.400 144.716,301.664 144.451 C 301.929 144.185,302.075 143.855,301.990 143.717 C 301.905 143.580,301.962 143.467,302.118 143.467 C 302.273 143.467,302.400 143.354,302.400 143.215 C 302.400 143.077,302.667 142.512,302.993 141.960 C 303.318 141.407,303.607 140.803,303.635 140.616 C 303.662 140.430,303.876 140.086,304.109 139.853 C 304.504 139.457,304.641 139.082,304.565 138.600 C 304.548 138.490,304.660 138.400,304.816 138.400 C 304.971 138.400,305.024 138.280,304.933 138.133 C 304.843 137.987,304.888 137.867,305.033 137.867 C 305.283 137.867,305.619 137.140,305.769 136.272 C 305.807 136.054,305.965 135.834,306.120 135.782 C 306.276 135.730,306.335 135.578,306.253 135.444 C 306.170 135.310,306.236 135.200,306.400 135.200 C 306.564 135.200,306.624 135.080,306.533 134.933 C 306.443 134.787,306.503 134.667,306.667 134.667 C 306.831 134.667,306.891 134.547,306.800 134.400 C 306.709 134.253,306.769 134.133,306.933 134.133 C 307.097 134.133,307.157 134.013,307.067 133.867 C 306.976 133.720,307.016 133.600,307.155 133.600 C 307.380 133.600,307.670 132.874,307.891 131.760 C 307.931 131.555,308.123 131.287,308.316 131.164 C 308.509 131.042,308.553 130.940,308.413 130.937 C 308.274 130.935,308.304 130.789,308.480 130.613 C 308.656 130.437,308.800 130.087,308.800 129.836 C 308.800 129.584,308.927 129.336,309.081 129.284 C 309.236 129.232,309.407 128.952,309.461 128.662 C 309.515 128.371,309.578 128.133,309.600 128.133 C 309.622 128.133,309.684 127.905,309.736 127.627 C 309.788 127.348,309.952 127.045,310.099 126.954 C 310.247 126.863,310.425 126.472,310.495 126.084 C 310.565 125.697,310.748 125.145,310.902 124.858 C 311.056 124.572,311.105 124.261,311.013 124.168 C 310.920 124.076,310.975 124.000,311.134 124.000 C 311.397 124.000,312.129 122.187,312.382 120.911 C 312.600 119.808,312.675 119.594,312.900 119.430 C 313.028 119.337,313.133 118.947,313.133 118.564 C 313.133 118.180,313.245 117.867,313.382 117.867 C 313.519 117.867,313.562 117.755,313.478 117.618 C 313.394 117.482,313.439 117.300,313.578 117.214 C 313.717 117.128,313.820 116.688,313.807 116.237 C 313.795 115.785,313.903 115.337,314.049 115.241 C 314.285 115.085,314.681 113.635,315.116 111.333 C 315.199 110.893,315.359 110.413,315.471 110.267 C 315.583 110.120,315.747 109.520,315.835 108.933 C 315.923 108.347,316.092 107.447,316.209 106.933 C 316.327 106.420,316.410 105.820,316.395 105.600 C 316.380 105.380,316.457 105.077,316.567 104.926 C 316.765 104.655,316.940 103.329,317.217 100.000 C 317.296 99.047,317.431 98.087,317.517 97.867 C 317.901 96.880,318.071 84.842,317.748 81.467 C 317.549 79.393,317.384 78.000,317.335 78.000 C 317.294 78.000,317.089 76.819,316.943 75.733 C 316.893 75.367,316.829 75.067,316.800 75.067 C 316.771 75.067,316.719 74.766,316.685 74.399 C 316.651 74.032,316.498 73.492,316.346 73.199 C 316.194 72.906,316.103 72.457,316.144 72.200 C 316.186 71.943,316.100 71.733,315.954 71.733 C 315.808 71.733,315.740 71.583,315.803 71.400 C 315.866 71.217,315.625 70.287,315.268 69.333 C 314.911 68.380,314.610 67.450,314.598 67.267 C 314.587 67.083,314.465 66.933,314.327 66.933 C 314.189 66.933,314.145 66.753,314.230 66.533 C 314.314 66.313,314.297 66.132,314.192 66.131 C 313.910 66.128,313.324 64.764,313.490 64.496 C 313.568 64.370,313.504 64.267,313.349 64.267 C 313.194 64.267,313.086 64.177,313.110 64.067 C 313.187 63.706,312.598 62.519,312.161 62.156 C 311.926 61.961,311.733 61.589,311.733 61.329 C 311.733 61.070,311.553 60.788,311.333 60.704 C 311.113 60.619,310.933 60.393,310.933 60.201 C 310.933 60.009,310.580 59.465,310.148 58.993 C 309.717 58.520,309.411 58.133,309.470 58.133 C 309.529 58.133,308.932 57.473,308.145 56.667 C 307.357 55.860,306.637 55.200,306.544 55.200 C 306.451 55.200,306.097 54.900,305.757 54.533 C 305.417 54.167,305.042 53.867,304.924 53.867 C 304.805 53.867,304.519 53.703,304.288 53.504 C 303.605 52.916,300.803 51.467,300.348 51.467 C 300.118 51.467,299.522 51.215,299.025 50.907 C 298.527 50.600,297.943 50.416,297.727 50.499 C 297.510 50.582,297.333 50.520,297.333 50.361 C 297.333 50.201,297.093 50.134,296.800 50.211 C 296.507 50.287,296.267 50.252,296.267 50.132 C 296.267 50.012,296.057 49.948,295.800 49.989 C 295.543 50.031,295.207 49.965,295.053 49.843 C 294.174 49.150,279.541 49.028,278.447 49.705 C 278.344 49.768,277.546 49.897,276.673 49.991 C 275.800 50.086,274.950 50.275,274.785 50.412 C 274.620 50.550,274.417 50.595,274.336 50.513 C 274.254 50.432,273.665 50.513,273.027 50.694 C 272.389 50.875,271.614 51.043,271.305 51.068 C 270.996 51.093,270.516 51.203,270.238 51.313 C 269.961 51.423,269.391 51.558,268.972 51.614 C 268.553 51.670,268.040 51.856,267.832 52.029 C 267.624 52.201,267.378 52.267,267.285 52.174 C 267.192 52.081,266.967 52.128,266.785 52.279 C 266.603 52.430,266.232 52.602,265.961 52.662 C 265.689 52.722,265.077 52.889,264.600 53.033 C 264.123 53.178,263.733 53.230,263.733 53.149 C 263.733 53.068,263.583 53.120,263.400 53.264 C 263.094 53.505,261.838 53.913,261.200 53.979 C 261.053 53.994,260.540 54.220,260.059 54.481 C 259.578 54.742,259.068 54.883,258.926 54.795 C 258.783 54.707,258.667 54.762,258.667 54.918 C 258.667 55.073,258.577 55.177,258.467 55.149 C 258.052 55.044,256.533 55.519,256.533 55.755 C 256.533 55.890,256.443 55.984,256.333 55.964 C 255.873 55.882,254.400 56.353,254.400 56.582 C 254.400 56.719,254.297 56.768,254.170 56.689 C 253.865 56.501,251.733 57.347,251.733 57.656 C 251.733 57.789,251.617 57.826,251.474 57.738 C 251.332 57.650,250.912 57.777,250.541 58.020 C 250.170 58.263,249.867 58.379,249.867 58.278 C 249.867 58.178,249.677 58.285,249.445 58.517 C 249.213 58.749,248.913 58.870,248.779 58.787 C 248.644 58.703,248.533 58.762,248.533 58.918 C 248.533 59.073,248.242 59.200,247.886 59.200 C 247.530 59.200,247.080 59.350,246.886 59.533 C 246.692 59.717,246.293 59.906,246.000 59.954 C 245.707 60.003,245.167 60.239,244.800 60.480 C 244.433 60.721,244.047 60.893,243.941 60.862 C 243.835 60.831,243.137 61.166,242.389 61.607 C 241.028 62.409,240.533 62.438,240.533 61.718 C 240.533 61.506,240.416 61.333,240.272 61.333 C 240.128 61.333,239.935 61.034,239.843 60.669 C 239.752 60.303,239.569 60.070,239.438 60.151 C 239.307 60.232,239.200 60.164,239.200 60.000 C 239.200 59.391,234.934 54.533,234.400 54.533 C 234.260 54.533,233.795 54.173,233.364 53.733 C 232.302 52.647,231.256 51.848,231.039 51.956 C 230.940 52.005,230.761 51.885,230.640 51.689 C 230.518 51.494,230.291 51.333,230.133 51.333 C 229.976 51.333,229.748 51.173,229.627 50.977 C 229.506 50.781,229.300 50.614,229.170 50.606 C 229.040 50.598,228.676 50.423,228.361 50.216 C 227.541 49.679,223.686 48.225,223.521 48.390 C 223.445 48.466,223.241 48.412,223.069 48.268 C 222.896 48.125,222.285 47.936,221.711 47.848 C 219.943 47.576,219.600 47.513,219.600 47.460 C 219.600 47.259,212.449 47.337,211.600 47.547 M271.933 94.936 C 271.970 94.971,272.120 95.030,272.267 95.067 C 272.413 95.103,272.623 95.163,272.733 95.198 C 272.843 95.234,273.020 95.250,273.125 95.234 C 273.231 95.218,273.447 95.447,273.605 95.743 C 273.764 96.039,274.007 96.211,274.147 96.125 C 274.286 96.039,274.400 96.146,274.400 96.362 C 274.400 96.578,274.521 96.796,274.669 96.845 C 274.817 96.895,274.995 97.235,275.065 97.601 C 275.134 97.967,275.270 98.627,275.367 99.067 C 275.657 100.389,275.527 103.119,275.104 104.605 C 274.885 105.372,274.650 106.373,274.582 106.829 C 274.514 107.285,274.205 108.230,273.896 108.929 C 273.586 109.629,273.333 110.419,273.333 110.685 C 273.333 110.951,273.211 111.244,273.062 111.336 C 272.913 111.428,272.860 111.615,272.945 111.752 C 273.029 111.888,272.971 112.000,272.816 112.000 C 272.660 112.000,272.552 112.090,272.576 112.200 C 272.624 112.430,272.340 113.256,271.981 113.930 C 271.845 114.184,271.733 114.574,271.733 114.796 C 271.733 115.018,271.613 115.200,271.467 115.200 C 271.320 115.200,271.214 115.290,271.232 115.400 C 271.249 115.510,271.234 115.690,271.198 115.800 C 271.163 115.910,271.107 116.090,271.076 116.200 C 270.885 116.865,270.100 118.389,269.878 118.526 C 269.733 118.616,269.472 119.164,269.298 119.745 C 269.125 120.325,268.895 120.800,268.789 120.800 C 268.592 120.800,268.185 121.835,268.238 122.200 C 268.254 122.310,268.140 122.400,267.984 122.400 C 267.829 122.400,267.770 122.510,267.853 122.645 C 267.937 122.780,267.840 123.056,267.638 123.258 C 267.436 123.460,267.178 123.919,267.065 124.279 C 266.952 124.639,266.636 125.220,266.363 125.569 C 266.090 125.919,265.867 126.373,265.867 126.578 C 265.867 126.782,265.687 127.019,265.468 127.103 C 265.249 127.187,265.128 127.350,265.199 127.464 C 265.269 127.579,265.149 127.821,264.930 128.002 C 264.712 128.184,264.533 128.489,264.533 128.680 C 264.533 128.872,264.377 129.187,264.186 129.381 C 263.995 129.575,263.568 130.296,263.237 130.983 C 262.906 131.670,262.548 132.270,262.441 132.316 C 262.180 132.428,260.533 135.140,260.533 135.457 C 260.533 135.595,260.383 135.803,260.200 135.920 C 259.721 136.227,258.965 137.230,259.420 136.957 C 259.712 136.781,259.713 136.841,259.422 137.305 C 259.229 137.614,258.981 137.867,258.869 137.867 C 258.758 137.867,258.667 138.034,258.667 138.238 C 258.667 138.442,258.469 138.685,258.228 138.778 C 257.988 138.870,257.855 139.010,257.934 139.089 C 258.013 139.168,257.792 139.541,257.444 139.917 C 257.095 140.293,256.875 140.705,256.954 140.834 C 257.033 140.962,256.979 141.067,256.833 141.067 C 256.687 141.067,255.991 141.937,255.286 143.000 C 254.581 144.063,253.853 145.029,253.669 145.147 C 253.484 145.264,253.333 145.468,253.333 145.601 C 253.333 145.734,253.063 146.125,252.733 146.470 C 252.403 146.815,251.953 147.383,251.733 147.732 C 251.513 148.080,250.883 148.867,250.333 149.479 C 249.783 150.092,249.333 150.679,249.333 150.784 C 249.333 150.889,248.823 151.496,248.200 152.132 C 247.577 152.769,246.801 153.629,246.476 154.045 C 245.150 155.742,244.552 156.386,244.535 156.133 C 244.526 155.987,244.459 153.707,244.386 151.067 C 244.313 148.427,244.194 144.227,244.120 141.733 C 244.047 139.240,243.933 135.340,243.868 133.067 C 243.802 130.793,243.681 126.773,243.599 124.133 C 243.200 111.346,243.329 109.647,244.701 109.608 C 244.866 109.604,245.202 109.330,245.446 109.000 C 245.691 108.670,245.811 108.580,245.713 108.800 C 245.615 109.020,245.880 108.867,246.301 108.460 C 247.334 107.461,248.264 106.693,249.067 106.176 C 249.433 105.939,249.831 105.591,249.950 105.401 C 250.069 105.211,250.271 105.120,250.398 105.199 C 250.526 105.278,250.799 105.101,251.006 104.806 C 251.212 104.511,251.440 104.329,251.513 104.402 C 251.586 104.474,251.957 104.204,252.339 103.800 C 253.190 102.901,253.265 102.844,255.600 101.345 C 256.040 101.063,256.520 100.728,256.667 100.601 C 256.813 100.474,257.006 100.377,257.094 100.385 C 257.271 100.401,258.519 99.529,259.077 99.000 C 259.270 98.817,259.579 98.667,259.764 98.667 C 259.948 98.667,260.396 98.397,260.759 98.067 C 261.122 97.737,261.318 97.640,261.195 97.852 C 261.048 98.104,261.242 98.055,261.752 97.710 C 262.182 97.419,262.893 97.010,263.333 96.801 C 263.773 96.593,264.297 96.301,264.496 96.154 C 264.696 96.006,265.173 95.844,265.556 95.792 C 265.940 95.741,266.400 95.577,266.579 95.428 C 266.759 95.280,267.302 95.096,267.786 95.021 C 268.270 94.945,268.706 94.845,268.755 94.798 C 268.851 94.705,271.826 94.834,271.933 94.936 M283.667 211.796 C 283.997 211.820,284.267 211.943,284.267 212.069 C 284.267 212.195,284.391 212.221,284.544 212.127 C 285.057 211.809,288.533 213.927,288.533 214.557 C 288.533 214.644,288.776 214.914,289.072 215.157 C 289.369 215.401,289.664 215.882,289.729 216.227 C 289.794 216.572,289.979 217.014,290.141 217.209 C 290.939 218.171,290.877 223.636,290.033 226.710 C 289.805 227.541,289.562 228.501,289.492 228.844 C 289.423 229.186,289.110 230.127,288.798 230.933 C 288.486 231.740,288.197 232.520,288.157 232.667 C 288.116 232.813,287.992 233.263,287.879 233.667 C 287.767 234.070,287.561 234.400,287.422 234.400 C 287.283 234.400,287.243 234.521,287.335 234.669 C 287.426 234.817,287.313 235.125,287.084 235.354 C 286.854 235.584,286.667 235.986,286.667 236.249 C 286.667 236.511,286.377 237.153,286.023 237.674 C 285.669 238.196,285.449 238.693,285.534 238.778 C 285.619 238.864,285.542 238.933,285.362 238.933 C 285.182 238.933,285.105 239.046,285.190 239.184 C 285.275 239.321,285.132 239.558,284.872 239.709 C 284.613 239.860,284.496 239.987,284.613 239.992 C 284.730 239.996,284.465 240.525,284.023 241.166 C 283.582 241.807,283.296 242.407,283.388 242.499 C 283.480 242.591,283.408 242.667,283.229 242.667 C 283.049 242.667,282.976 242.787,283.067 242.933 C 283.157 243.080,283.117 243.200,282.978 243.200 C 282.839 243.200,282.648 243.505,282.554 243.878 C 282.461 244.250,282.281 244.491,282.155 244.414 C 282.030 244.336,281.598 244.944,281.196 245.766 C 280.794 246.587,280.108 247.666,279.672 248.163 C 279.235 248.660,278.981 249.071,279.106 249.076 C 279.231 249.080,279.050 249.320,278.704 249.609 C 278.358 249.897,278.170 250.133,278.288 250.133 C 278.406 250.133,278.269 250.310,277.984 250.525 C 277.700 250.740,277.562 250.920,277.679 250.925 C 277.795 250.930,277.585 251.239,277.212 251.612 C 276.839 251.985,276.533 252.400,276.533 252.533 C 276.533 252.667,276.233 253.076,275.867 253.442 C 275.500 253.809,275.200 254.205,275.199 254.321 C 275.199 254.438,274.839 254.953,274.400 255.467 C 273.961 255.980,273.601 256.497,273.601 256.616 C 273.600 256.734,273.489 256.763,273.353 256.679 C 273.216 256.594,273.037 256.740,272.954 257.002 C 272.820 257.424,271.987 258.487,270.796 259.756 C 270.578 259.988,270.400 260.296,270.400 260.441 C 270.400 260.586,269.981 261.038,269.468 261.447 C 268.956 261.855,268.590 262.275,268.654 262.380 C 268.719 262.484,268.526 262.741,268.226 262.951 C 267.927 263.161,267.570 263.620,267.433 263.970 C 267.297 264.321,267.112 264.535,267.024 264.446 C 266.935 264.357,266.515 264.763,266.092 265.349 C 265.668 265.934,264.829 266.890,264.228 267.473 C 263.627 268.056,263.192 268.533,263.261 268.533 C 263.330 268.533,262.684 269.283,261.827 270.198 C 260.969 271.114,260.267 271.954,260.267 272.065 C 260.267 272.176,260.067 272.267,259.822 272.267 C 259.578 272.267,259.439 272.328,259.515 272.404 C 259.590 272.479,258.950 273.267,258.092 274.154 C 257.235 275.041,256.533 275.900,256.533 276.061 C 256.533 276.223,256.466 276.288,256.384 276.206 C 256.301 276.124,255.709 276.614,255.067 277.295 C 254.425 277.976,252.883 279.613,251.640 280.933 C 250.397 282.253,249.301 283.254,249.203 283.158 C 249.106 283.061,248.970 279.761,248.902 275.824 C 248.768 268.104,248.633 261.189,248.405 250.267 C 248.325 246.453,248.221 240.873,248.173 237.867 C 248.125 234.860,247.993 231.481,247.880 230.357 C 247.646 228.024,248.292 226.657,250.341 225.154 C 250.887 224.754,251.891 223.850,252.572 223.146 C 253.253 222.443,253.916 221.867,254.046 221.867 C 254.176 221.867,254.455 221.627,254.667 221.333 C 254.878 221.040,255.212 220.800,255.408 220.800 C 255.604 220.800,255.702 220.698,255.625 220.574 C 255.548 220.449,255.804 220.179,256.195 219.974 C 256.585 219.768,257.199 219.330,257.558 219.000 C 257.917 218.670,258.312 218.400,258.436 218.400 C 258.559 218.400,258.872 218.219,259.130 217.998 C 259.389 217.777,259.690 217.597,259.801 217.599 C 259.911 217.601,260.499 217.242,261.107 216.801 C 261.716 216.360,262.375 216.000,262.573 216.000 C 262.771 216.000,262.933 215.873,262.933 215.718 C 262.933 215.562,263.053 215.509,263.200 215.600 C 263.347 215.691,263.467 215.618,263.467 215.438 C 263.467 215.258,263.542 215.187,263.635 215.280 C 263.728 215.372,264.058 215.308,264.368 215.137 C 264.679 214.966,265.101 214.798,265.307 214.764 C 265.512 214.730,265.780 214.544,265.903 214.351 C 266.025 214.158,266.127 214.097,266.129 214.216 C 266.131 214.334,266.283 214.336,266.467 214.220 C 266.650 214.103,266.860 213.997,266.933 213.982 C 267.710 213.832,268.847 213.434,269.651 213.031 C 270.193 212.760,270.823 212.610,271.051 212.698 C 271.280 212.785,271.467 212.728,271.467 212.570 C 271.467 212.412,271.637 212.349,271.846 212.429 C 272.054 212.509,272.504 212.424,272.846 212.241 C 274.058 211.590,278.445 211.410,283.667 211.796 " />
    </g>
</svg>