<svg xmlns="http://www.w3.org/2000/svg" xmlns:xlink="http://www.w3.org/1999/xlink" viewBox="0 0 64 64">
    <g>
        <path
            d="M40.8,6.8H22.7c-8.1,0-14.8,6.6-14.8,14.8v24.3l-2.6-2.6c-0.5-0.5-1.1-0.7-1.7-0.7s-1.2,0.2-1.7,0.7   c-0.5,0.5-0.7,1.1-0.7,1.7s0.3,1.2,0.7,1.7l5.7,5.7c0.7,0.7,1.7,1.1,2.7,1.1s2-0.4,2.7-1.1l5.7-5.7c0.5-0.5,0.7-1.1,0.7-1.7   s-0.3-1.2-0.7-1.7c-0.5-0.5-1.1-0.7-1.7-0.7c-0.6,0-1.2,0.3-1.7,0.7l-2.6,2.6V21.6c0-5.5,4.5-10,10-10h18.2c1.3,0,2.4-1.1,2.4-2.4   S42.2,6.8,40.8,6.8z" />
        <path
            d="M56.1,18.1l2.6,2.6c0.9,0.9,2.5,0.9,3.4,0c0.5-0.5,0.7-1.1,0.7-1.7c0-0.6-0.3-1.2-0.7-1.7l-5.7-5.7   c-0.7-0.7-1.7-1.1-2.7-1.1s-2,0.4-2.7,1.1l-5.7,5.7c-0.5,0.5-0.7,1.1-0.7,1.7c0,0.6,0.3,1.2,0.7,1.7c0.5,0.5,1.1,0.7,1.7,0.7   c0.6,0,1.2-0.3,1.7-0.7l2.6-2.6v24.3c0,5.5-4.5,10-10,10H23.2c-1.3,0-2.4,1.1-2.4,2.4c0,1.3,1.1,2.4,2.4,2.4h18.2   c8.1,0,14.8-6.6,14.8-14.8V18.1z" />
        <path
            d="M36.1,45.9c3.2-1,5-3,5.4-5.9c0.5-3.5-0.6-6.1-3.2-7.7c-0.9-0.6-2-1-3-1.5c-0.5-0.2-1-0.5-1.5-0.7c-0.3-0.2-0.6-0.3-1-0.5   c-0.9-0.4-1.7-0.8-2.6-1.3c-1.2-0.8-1.7-2.5-1.1-4.2c0.5-1.4,1.4-2,3.2-2c1.7,0,2.9,0.8,3.4,2.3c0.2,0.4,0.2,0.9,0.3,1.4l0,0.1   c0,0.2,0.1,0.4,0.1,0.5h5.3c0.2-1.5-0.2-3.3-1-4.6c-1.2-2-3-3.2-5.9-3.8l-0.4-0.1v-2.5h-3v2.3l-0.4,0.1c-0.3,0.1-0.6,0.2-0.9,0.3   c-0.9,0.3-1.7,0.5-2.4,0.9c-2.3,1.2-3.8,3.4-4,6.1c-0.2,2.6,0.9,5,2.9,6.5c1.1,0.8,2.3,1.3,3.5,1.8c0.5,0.2,1.1,0.5,1.6,0.7   c0.3,0.2,0.6,0.3,0.9,0.4l0.2,0.1c0.8,0.3,1.5,0.7,2.1,1.1c1.3,0.8,1.8,2.5,1.2,4.2c-0.4,1.4-1.5,2.1-3.2,2.2c-0.4,0-0.8,0-1.2,0   c-2-0.1-3.3-1.4-3.6-3.5c0-0.1,0-0.2,0-0.4l-0.1-0.6h-5.3c-0.4,4.5,2.1,7.3,7.8,8.6l0.4,0.1v2.1h3v-2.1l0.8-0.2   C35.1,46.2,35.6,46.1,36.1,45.9z" />
    </g>
</svg>